<?xml version="1.0" standalone="no"?>
<!DOCTYPE svg PUBLIC "-//W3C//DTD SVG 20010904//EN"
 "http://www.w3.org/TR/2001/REC-SVG-20010904/DTD/svg10.dtd">
<svg version="1.0" xmlns="http://www.w3.org/2000/svg"
 width="700.000000pt" height="700.000000pt" viewBox="0 0 700.000000 700.000000"
 preserveAspectRatio="xMidYMid meet">
<metadata>
Created by potrace 1.14, written by Peter Selinger 2001-2017
</metadata>
<g transform="translate(0.000000,700.000000) scale(0.100000,-0.100000)"
fill="#000000" stroke="none">
<path d="M3450 6213 c-25 -43 -49 -86 -55 -95 -5 -9 -17 -30 -26 -46 -47 -86
-124 -220 -140 -244 -11 -15 -19 -29 -19 -32 0 -3 -239 -427 -269 -476 -5 -8
-119 -206 -253 -440 -133 -234 -247 -433 -253 -442 -5 -9 -20 -34 -31 -55 -27
-49 -262 -459 -285 -498 -10 -16 -26 -46 -37 -65 -11 -19 -253 -444 -539 -945
-286 -500 -528 -923 -537 -940 -9 -16 -21 -37 -26 -45 -6 -8 -70 -121 -144
-250 l-133 -235 695 -3 c549 -2 699 1 708 10 6 7 28 43 48 81 34 62 114 202
136 237 5 8 18 31 28 51 22 40 578 1013 812 1421 58 101 110 192 117 203 7 11
16 27 20 36 29 58 228 399 233 399 4 0 677 -1167 762 -1323 10 -18 157 -275
326 -572 l309 -540 702 -3 703 -2 -20 32 c-22 37 -1055 1846 -1081 1893 -9 17
-18 32 -21 35 -3 3 -10 14 -15 26 -24 50 -1660 2904 -1665 2904 -3 0 -26 -35
-50 -77z"/>
</g>
</svg>
